HIERARCHY
ROOT Hips
{
    OFFSET   0.000000   0.000000   0.000000
    CHANNELS 6 Xposition Yposition Zposition Zrotation Xrotation Yrotation
    JOINT Chest
    {
        OFFSET   0.000000   8.007230   0.000000
        CHANNELS 3 Zrotation Xrotation Yrotation
        JOINT Chest2
        {
            OFFSET   0.000000  22.077100   0.000000
            CHANNELS 3 Zrotation Xrotation Yrotation
            JOINT Neck
            {
                OFFSET   0.000000  23.254800  -0.000021
                CHANNELS 3 Zrotation Xrotation Yrotation
                JOINT Head
                {
                    OFFSET   0.000000  14.370000   1.956610
                    CHANNELS 3 Zrotation Xrotation Yrotation
                    End Site
                    {
                        OFFSET   0.000000  19.566000   0.000000
                    }
                }
            }
            JOINT LeftCollar
            {
                OFFSET   3.911900  19.017000  -0.467063
                CHANNELS 3 Zrotation Xrotation Yrotation
                JOINT LeftShoulder
                {
                    OFFSET  10.383700   0.000000   0.000000
                    CHANNELS 3 Zrotation Xrotation Yrotation
                    JOINT LeftElbow
                    {
                        OFFSET  26.662100   0.001529   0.000325
                        CHANNELS 3 Zrotation Xrotation Yrotation
                        JOINT LeftWrist
                        {
                            OFFSET  28.869000  -0.000011  -0.000096
                            CHANNELS 3 Zrotation Xrotation Yrotation
                            JOINT LeftFinger0
                            {
                                OFFSET   2.044650  -2.323460   3.252850
                                CHANNELS 3 Zrotation Xrotation Yrotation
                                JOINT LeftFinger01
                                {
                                    OFFSET   3.088130   0.000000   0.000000
                                    CHANNELS 3 Zrotation Xrotation Yrotation
                                    JOINT LeftFinger02
                                    {
                                        OFFSET   2.639460   0.000000   0.000000
                                        CHANNELS 3 Zrotation Xrotation Yrotation
                                        End Site
                                        {
                                            OFFSET   2.582190   0.000000   0.000000
                                        }
                                    }
                                }
                            }
                            JOINT LeftFinger1
                            {
                                OFFSET   8.364480   0.000000   3.252850
                                CHANNELS 3 Zrotation Xrotation Yrotation
                                JOINT LeftFinger11
                                {
                                    OFFSET   4.646930   0.000000   0.000000
                                    CHANNELS 3 Zrotation Xrotation Yrotation
                                    JOINT LeftFinger12
                                    {
                                        OFFSET   2.323460   0.000000   0.000000
                                        CHANNELS 3 Zrotation Xrotation Yrotation
                                        End Site
                                        {
                                            OFFSET   2.273050   0.000000   0.000000
                                        }
                                    }
                                }
                            }
                            JOINT LeftFinger2
                            {
                                OFFSET   8.364480   0.000016   1.078090
                                CHANNELS 3 Zrotation Xrotation Yrotation
                                JOINT LeftFinger21
                                {
                                    OFFSET   5.111620   0.000000   0.000000
                                    CHANNELS 3 Zrotation Xrotation Yrotation
                                    JOINT LeftFinger22
                                    {
                                        OFFSET   2.788160   0.000017   0.000000
                                        CHANNELS 3 Zrotation Xrotation Yrotation
                                        End Site
                                        {
                                            OFFSET   2.727660   0.000000   0.000000
                                        }
                                    }
                                }
                            }
                            JOINT LeftFinger3
                            {
                                OFFSET   7.899780   0.000015  -1.078090
                                CHANNELS 3 Zrotation Xrotation Yrotation
                                JOINT LeftFinger31
                                {
                                    OFFSET   4.646920   0.000000   0.000000
                                    CHANNELS 3 Zrotation Xrotation Yrotation
                                    JOINT LeftFinger32
                                    {
                                        OFFSET   2.323470   0.000000   0.000000
                                        CHANNELS 3 Zrotation Xrotation Yrotation
                                        End Site
                                        {
                                            OFFSET   2.273050   0.000000   0.000000
                                        }
                                    }
                                }
                            }
                            JOINT LeftFinger4
                            {
                                OFFSET   7.435090   0.000000  -3.252850
                                CHANNELS 3 Zrotation Xrotation Yrotation
                                JOINT LeftFinger41
                                {
                                    OFFSET   3.717550   0.000000   0.000000
                                    CHANNELS 3 Zrotation Xrotation Yrotation
                                    JOINT LeftFinger42
                                    {
                                        OFFSET   1.858760   0.000000   0.000000
                                        CHANNELS 3 Zrotation Xrotation Yrotation
                                        End Site
                                        {
                                            OFFSET   1.818440   0.000000   0.000000
                                        }
                                    }
                                }
                            }
                        }
                    }
                }
            }
            JOINT RightCollar
            {
                OFFSET  -3.911900  19.017000  -0.467062
                CHANNELS 3 Zrotation Xrotation Yrotation
                JOINT RightShoulder
                {
                    OFFSET -10.383700   0.000015   0.000000
                    CHANNELS 3 Zrotation Xrotation Yrotation
                    JOINT RightElbow
                    {
                        OFFSET -26.662100   0.001341   0.000385
                        CHANNELS 3 Zrotation Xrotation Yrotation
                        JOINT RightWrist
                        {
                            OFFSET -28.869000   0.000025  -0.000080
                            CHANNELS 3 Zrotation Xrotation Yrotation
                            JOINT RightFinger0
                            {
                                OFFSET  -2.044650  -2.323490   3.252850
                                CHANNELS 3 Zrotation Xrotation Yrotation
                                JOINT RightFinger01
                                {
                                    OFFSET  -3.088130   0.000000   0.000000
                                    CHANNELS 3 Zrotation Xrotation Yrotation
                                    JOINT RightFinger02
                                    {
                                        OFFSET  -2.639460   0.000000   0.000000
                                        CHANNELS 3 Zrotation Xrotation Yrotation
                                        End Site
                                        {
                                            OFFSET  -2.582190   0.000000   0.000000
                                        }
                                    }
                                }
                            }
                            JOINT RightFinger1
                            {
                                OFFSET  -8.364480   0.000000   3.252850
                                CHANNELS 3 Zrotation Xrotation Yrotation
                                JOINT RightFinger11
                                {
                                    OFFSET  -4.646930   0.000000   0.000000
                                    CHANNELS 3 Zrotation Xrotation Yrotation
                                    JOINT RightFinger12
                                    {
                                        OFFSET  -2.323470   0.000000   0.000000
                                        CHANNELS 3 Zrotation Xrotation Yrotation
                                        End Site
                                        {
                                            OFFSET  -2.273050   0.000000   0.000000
                                        }
                                    }
                                }
                            }
                            JOINT RightFinger2
                            {
                                OFFSET  -8.364480   0.000000   1.078090
                                CHANNELS 3 Zrotation Xrotation Yrotation
                                JOINT RightFinger21
                                {
                                    OFFSET  -5.111610   0.000000   0.000000
                                    CHANNELS 3 Zrotation Xrotation Yrotation
                                    JOINT RightFinger22
                                    {
                                        OFFSET  -2.788160   0.000000   0.000000
                                        CHANNELS 3 Zrotation Xrotation Yrotation
                                        End Site
                                        {
                                            OFFSET  -2.727660   0.000000   0.000000
                                        }
                                    }
                                }
                            }
                            JOINT RightFinger3
                            {
                                OFFSET  -7.899780   0.000000  -1.078090
                                CHANNELS 3 Zrotation Xrotation Yrotation
                                JOINT RightFinger31
                                {
                                    OFFSET  -4.646920   0.000000   0.000000
                                    CHANNELS 3 Zrotation Xrotation Yrotation
                                    JOINT RightFinger32
                                    {
                                        OFFSET  -2.323470   0.000000   0.000000
                                        CHANNELS 3 Zrotation Xrotation Yrotation
                                        End Site
                                        {
                                            OFFSET  -2.273050   0.000000   0.000000
                                        }
                                    }
                                }
                            }
                            JOINT RightFinger4
                            {
                                OFFSET  -7.435090   0.000000  -3.252850
                                CHANNELS 3 Zrotation Xrotation Yrotation
                                JOINT RightFinger41
                                {
                                    OFFSET  -3.717550   0.000000   0.000000
                                    CHANNELS 3 Zrotation Xrotation Yrotation
                                    JOINT RightFinger42
                                    {
                                        OFFSET  -1.858770   0.000000   0.000000
                                        CHANNELS 3 Zrotation Xrotation Yrotation
                                        End Site
                                        {
                                            OFFSET  -1.818440   0.000000   0.000000
                                        }
                                    }
                                }
                            }
                        }
                    }
                }
            }
        }
    }
    JOINT LeftHip
    {
        OFFSET   9.783010   0.000000   0.000000
        CHANNELS 3 Zrotation Xrotation Yrotation
        JOINT LeftKnee
        {
            OFFSET   0.000070 -41.789100   0.000028
            CHANNELS 3 Zrotation Xrotation Yrotation
            JOINT LeftAnkle
            {
                OFFSET   0.000087 -41.133200  -0.000100
                CHANNELS 3 Zrotation Xrotation Yrotation
                JOINT LeftToe
                {
                    OFFSET   0.000000  -6.358960  14.674500
                    CHANNELS 3 Zrotation Xrotation Yrotation
                    End Site
                    {
                        OFFSET   0.000000   0.000000   3.913200
                    }
                }
            }
        }
    }
    JOINT RightHip
    {
        OFFSET  -9.783020   0.000000   0.000000
        CHANNELS 3 Zrotation Xrotation Yrotation
        JOINT RightKnee
        {
            OFFSET   0.000044 -41.789100  -0.000870
            CHANNELS 3 Zrotation Xrotation Yrotation
            JOINT RightAnkle
            {
                OFFSET  -0.000090 -41.133200  -0.000245
                CHANNELS 3 Zrotation Xrotation Yrotation
                JOINT RightToe
                {
                    OFFSET   0.000000  -6.358960  14.674500
                    CHANNELS 3 Zrotation Xrotation Yrotation
                    End Site
                    {
                        OFFSET   0.000000   0.000000   3.913200
                    }
                }
            }
        }
    }
}
MOTION
Frames: 4
Frame Time:   0.016667
 -1.396430  89.464400   0.619877  -0.871658  -3.971530   2.201710   1.091860   3.641420  -0.148749   2.199910   7.279370  -0.368280  -0.747481   0.023182   0.003658  -1.231770   0.047176   4.971460  -4.446600   2.672950  10.150300 -78.032900   7.580320   1.492990   0.161550   2.828630 -17.529700   7.035790  -9.112970  -0.741659  38.288800  30.165800 -46.059500 -32.517400  -0.000000   0.005617 -11.256700   0.000000   0.002658 -32.900400   0.391810  -0.605640 -26.920100   0.000722  -0.000310 -18.844100   0.000552   0.003397 -30.616100  -3.724250   6.273670 -46.229900   0.001576  -0.008512 -30.789100   0.001000   0.000383 -28.107900  -4.914470   9.113220 -36.114300   0.002289  -0.001197 -24.052100   0.001717   0.001204 -31.138600  -5.540010   9.078760 -47.368200   0.002385  -0.000805 -31.547200   0.001627   0.005045   5.605520   4.590020   7.687150  71.144400  -6.532140  -5.610870   4.051040  -5.212080  18.182800 -16.832300  -3.775570   3.285310 -38.871200  32.474100  67.705600  29.618200   0.011830  -0.006654   9.800130   0.004309   0.001775  33.561800   1.234390   1.858360  27.490200  -0.004651   0.003714  19.236100   0.006490  -0.004952  28.784200  -0.511351  -0.954025  41.579300  -0.005847   0.001480  27.696600  -0.002223   0.004053  29.590000  -1.608090  -2.854460  44.445400  -0.000777   0.000599  29.600700  -0.005216  -0.003113  36.703400  -1.963490  -2.631780  55.132300  -0.001029   0.004377  36.714800   0.003132   0.006198   3.961410   5.415380   0.491603   0.050718   1.199690  13.800500  -3.333660  -2.253730  -1.340220  -0.000000   0.000000   0.000000  -0.634615   5.373570  -2.381110   0.427808   2.179310 -17.204900   2.416690  -2.930320   1.871530   0.000000   0.000000   0.000000
 -1.396370  89.464400   0.618781  -0.871745  -3.977090   2.194790   1.091920   3.645590  -0.150620   2.200170   7.287640  -0.372111  -0.747717   0.021668   0.003652  -1.232110   0.044217   4.995530  -4.446980   2.672890  10.158400 -78.040800   7.591490   1.477210   0.158574   2.819700 -17.529600   7.035480  -9.118640  -0.744420  38.284700  30.154300 -46.085300 -32.522500   0.000000   0.005634 -11.260100   0.000000   0.002670 -32.922500   0.403062  -0.622312 -26.938400   0.000734  -0.000319 -18.856900   0.000562   0.003406 -30.629900  -3.724260   6.269830 -46.250500   0.001593  -0.008519 -30.802800   0.001010   0.000389 -28.110700  -4.905920   9.096080 -36.144800   0.002306  -0.001205 -24.072500   0.001730   0.001217 -31.157300  -5.534160   9.062800 -47.394400   0.002401  -0.000812 -31.564700   0.001639   0.005075   5.602310   4.590020   7.686280  71.150800  -6.523150  -5.609000   4.053100  -5.217000  18.187300 -16.831100  -3.783160   3.291660 -38.866800  32.474500  67.718100  29.615200   0.011835  -0.006665   9.799750   0.004309   0.001764  33.570400   1.234670   1.858750  27.490200  -0.004655   0.003714  19.235900   0.006488  -0.004955  28.784200  -0.511231  -0.947989  41.585800  -0.005850   0.001479  27.696500  -0.002226   0.004054  29.590100  -1.607970  -2.848860  44.445300  -0.000772   0.000599  29.600700  -0.005220  -0.003113  36.703700  -1.959790  -2.626560  55.132800  -0.001027   0.004367  36.714800   0.003128   0.006203   3.961410   5.421550   0.491755   0.050487   1.198000  13.800400  -3.333610  -2.253260  -1.340210  -0.000000   0.000000   0.000000  -0.623563   5.367470  -2.394690   0.412358   2.194600 -17.189400   2.425290  -2.937160   1.871530   0.000000   0.000000   0.000000
 -1.396280  89.464400   0.615331  -0.871748  -3.990750   2.184670   1.092050   3.656070  -0.154646   2.200740   7.308470  -0.380396  -0.747954   0.017223   0.003642  -1.231920   0.035257   5.034160  -4.447730   2.672780  10.174600 -78.054200   7.617890   1.445300   0.153745   2.804920 -17.529400   7.034510  -9.127240  -0.751074  38.273700  30.138000 -46.123800 -32.532400   0.000000   0.005670 -11.266200   0.000000   0.002693 -32.956800   0.414313  -0.638984 -26.966600   0.000765  -0.000339 -18.876600   0.000587   0.003429 -30.650000  -3.724260   6.264260 -46.280300   0.001634  -0.008543 -30.822700   0.001034   0.000403 -28.114700  -4.894050   9.072350 -36.187800   0.002347  -0.001226 -24.101100   0.001761   0.001251 -31.183200  -5.525720   9.040220 -47.430500   0.002443  -0.000827 -31.588700   0.001668   0.005155   5.594520   4.590070   7.681130  71.166300  -6.500200  -5.596380   4.056260  -5.224530  18.194600 -16.829600  -3.790720   3.302790 -38.865800  32.480600  67.739400  29.609900   0.011853  -0.006683   9.799380   0.004308   0.001748  33.579000   1.234960   1.859150  27.490200  -0.004667   0.003714  19.235500   0.006479  -0.004963  28.784300  -0.511110  -0.939540  41.592300  -0.005856   0.001474  27.696500  -0.002238   0.004059  29.590300  -1.607860  -2.840600  44.445300  -0.000760   0.000598  29.600600  -0.005232  -0.003111  36.704200  -1.954260  -2.618850  55.133300  -0.001022   0.004339  36.714800   0.003117   0.006215   3.961410   5.433940   0.491913   0.050257   1.196300  13.800400  -3.333360  -2.252790  -1.340200   0.000000   0.000000  -0.000000  -0.607771   5.354420  -2.408250   0.389449   2.229700 -17.166600   2.439990  -2.951960   1.871430  -0.000000   0.000000   0.000000
 -1.396250  89.464400   0.609450  -0.871375  -4.011280   2.179510   1.092160   3.671440  -0.159025   2.201350   7.339130  -0.389506  -0.747889   0.009727   0.003634  -1.229660   0.019730   5.061400  -4.445990   2.672750  10.193600 -78.065200   7.657690   1.407580   0.151208   2.797390 -17.525500   7.031770  -9.132300  -0.759744  38.268800  30.145100 -46.157900 -32.546800   0.000000   0.005714 -11.273500  -0.000038   0.002712 -32.982900   0.413777  -0.637723 -26.988000   0.000812  -0.000370 -18.891500   0.000625   0.003469 -30.659700  -3.724210   6.261510 -46.294800   0.001697  -0.008588 -30.832300   0.001070   0.000423 -28.116100  -4.890040   9.064570 -36.206900   0.002411  -0.001257 -24.113800   0.001809   0.001303 -31.191200  -5.521680   9.030980 -47.441500   0.002508  -0.000848 -31.596000   0.001712   0.005278   5.583430   4.590550   7.668570  71.186400  -6.467940  -5.568660   4.052140  -5.230030  18.201200 -16.829900  -3.786840   3.315520 -38.879400  32.495600  67.755000  29.604000   0.011888  -0.006697   9.799470   0.004301   0.001741  33.576100   1.234250   1.858160  27.486200  -0.004684   0.003717  19.235400   0.006461  -0.004980  28.784300  -0.511412  -0.935921  41.589300  -0.005863   0.001462  27.696500  -0.002260   0.004065  29.590400  -1.608170  -2.835520  44.445300  -0.000742   0.000598  29.600600  -0.005250  -0.003108  36.704600  -1.950670  -2.614130  55.128400  -0.001014   0.004296  36.713500   0.003099   0.006235   3.961520   5.449060   0.490765   0.049462   1.200310  13.800900  -3.331460  -2.253610  -1.339090   0.000000   0.000000   0.000000  -0.600185   5.332680  -2.407770   0.377537   2.284400 -17.155200   2.451990  -2.971290   1.867590   0.000000   0.000000   0.000000
